<?xml version="1.0" standalone="no"?>
<!DOCTYPE svg PUBLIC "-//W3C//DTD SVG 20010904//EN"
 "http://www.w3.org/TR/2001/REC-SVG-20010904/DTD/svg10.dtd">
<svg version="1.0" xmlns="http://www.w3.org/2000/svg"
 width="1024.000000pt" height="1024.000000pt" viewBox="0 0 1024.000000 1024.000000"
 preserveAspectRatio="xMidYMid meet">

<g transform="translate(0.000000,1024.000000) scale(0.100000,-0.100000)"
fill="#000000" stroke="none">
<path d="M3152 7109 c-354 -63 -820 -420 -858 -658 -7 -44 9 -96 32 -105 15
-6 44 2 44 13 0 3 17 32 38 63 52 80 163 190 257 257 120 85 245 164 250 160
6 -7 -52 -191 -195 -619 -157 -467 -180 -550 -187 -662 -6 -87 -6 -87 25 -117
25 -25 39 -31 76 -31 l45 0 11 58 c20 100 40 174 85 312 24 74 49 161 56 193
15 69 34 86 141 124 96 33 249 43 296 19 147 -76 129 -270 -40 -451 -79 -85
-168 -147 -312 -216 -213 -103 -348 -109 -538 -26 -32 14 -38 15 -48 2 -19
-23 4 -68 62 -120 130 -117 382 -118 611 -3 248 124 420 285 510 475 29 63 32
76 32 173 0 84 -4 112 -19 140 -35 65 -86 119 -147 153 l-60 34 50 37 c117 86
203 222 237 374 14 62 15 86 6 134 -23 121 -90 209 -197 260 -72 33 -171 44
-263 27z m198 -171 c60 -31 85 -81 85 -168 -1 -149 -105 -309 -270 -415 -68
-44 -236 -127 -242 -121 -3 3 40 141 97 306 110 323 109 316 50 340 -17 7 -30
16 -30 20 0 5 20 16 44 25 108 42 201 46 266 13z"/>
<path d="M4475 6639 c-11 -6 -53 -62 -94 -125 -116 -179 -248 -309 -405 -399
l-48 -28 7 24 c4 13 33 98 66 187 32 90 59 170 59 178 0 58 -72 106 -124 83
-28 -13 -43 -53 -125 -334 -22 -77 -72 -232 -110 -345 -76 -225 -96 -311 -81
-340 17 -31 52 -50 93 -50 47 0 48 1 124 268 30 108 59 201 63 205 4 5 10 -16
14 -45 11 -84 64 -228 105 -288 47 -68 103 -100 177 -100 103 0 196 52 270
152 l42 57 6 -51 c8 -60 37 -121 68 -142 31 -22 104 -20 156 4 57 26 136 108
210 218 33 49 62 96 64 103 3 8 8 12 10 9 3 -3 -11 -70 -31 -149 l-36 -144
-110 -59 c-253 -138 -384 -247 -445 -373 -50 -102 -50 -184 1 -250 35 -43 74
-57 157 -56 101 1 141 14 201 61 121 96 216 259 299 514 l49 149 76 57 c42 31
105 82 140 113 36 31 67 57 70 57 2 0 7 -25 10 -55 7 -70 51 -150 98 -182 166
-110 385 -45 568 169 41 48 76 86 77 85 1 -1 -4 -27 -12 -57 -8 -30 -21 -86
-29 -123 -12 -64 -12 -70 5 -87 21 -21 95 -44 114 -37 7 3 22 43 34 88 12 46
36 134 53 195 l30 111 93 7 c51 3 117 12 147 20 29 8 55 13 57 12 1 -2 -7 -29
-19 -62 -26 -73 -37 -225 -20 -277 17 -52 53 -77 110 -77 87 0 170 68 281 229
l24 35 16 -75 c19 -89 39 -128 82 -164 44 -37 71 -46 145 -46 149 -1 286 133
372 365 l26 68 70 23 c39 12 92 35 119 50 73 42 165 134 172 171 9 47 -17 50
-68 9 -81 -66 -143 -104 -196 -121 -29 -9 -55 -14 -57 -12 -3 3 0 31 6 64 23
123 -9 265 -75 330 -37 38 -47 43 -107 49 -76 8 -128 -9 -200 -67 -88 -70
-197 -241 -249 -388 -36 -100 -202 -325 -264 -357 -27 -14 -31 -14 -44 3 -22
31 -7 116 60 327 127 403 123 385 101 415 -23 31 -71 46 -105 33 -25 -9 -32
-30 -121 -336 -10 -34 -18 -42 -52 -53 -52 -17 -182 -34 -227 -30 l-36 3 25
75 c14 41 40 129 59 194 29 103 32 123 21 145 -16 34 -59 54 -97 46 -27 -6
-32 -14 -51 -78 -72 -245 -93 -307 -121 -354 -95 -157 -275 -350 -373 -400
-80 -41 -123 -48 -174 -27 -113 45 -126 236 -29 429 53 106 164 242 220 271
88 46 120 -19 79 -164 -22 -82 -15 -112 27 -112 63 0 115 103 116 225 0 140
-50 200 -169 200 -48 0 -74 -7 -128 -33 -154 -76 -333 -310 -364 -477 -6 -33
-133 -163 -219 -225 -46 -33 -47 -33 -42 -9 3 13 18 85 33 159 15 74 49 204
76 288 32 100 47 161 43 177 -9 38 -50 65 -98 65 l-42 0 -36 -97 c-107 -289
-120 -318 -201 -437 -93 -137 -170 -223 -209 -232 -21 -5 -30 -1 -43 20 -24
36 -10 108 64 338 116 359 115 357 56 385 -24 11 -40 13 -61 6 -32 -11 -27 0
-130 -283 -87 -236 -191 -408 -274 -450 -50 -25 -100 -26 -132 -1 -35 28 -82
121 -113 226 -15 50 -30 95 -32 101 -2 6 29 30 70 52 103 57 204 140 317 259
105 112 174 215 164 248 -12 39 -45 65 -83 64 -20 0 -45 -5 -56 -10z m3069
-289 c14 -17 28 -47 32 -67 7 -37 -1 -201 -10 -211 -8 -8 -66 19 -98 46 -42
35 -58 74 -58 137 0 66 10 89 48 109 40 22 57 19 86 -14z m-183 -337 c33 -31
116 -73 146 -73 25 0 -6 -78 -70 -179 -69 -105 -130 -141 -188 -111 -68 37
-66 251 3 447 l23 62 26 -57 c15 -31 42 -71 60 -89z m-2471 -610 c-32 -110
-137 -312 -193 -371 -34 -36 -77 -62 -102 -62 -28 0 -55 38 -55 77 0 58 36
118 122 204 72 72 209 179 229 179 4 0 4 -12 -1 -27z"/>
<path d="M3850 5151 c-101 -31 -182 -108 -164 -156 8 -21 37 -19 84 5 47 24
78 25 126 5 69 -29 90 -143 68 -368 l-7 -68 -38 40 c-44 46 -82 57 -166 48
-88 -9 -157 -49 -253 -146 -160 -161 -250 -363 -250 -557 0 -100 16 -146 69
-207 44 -50 105 -71 185 -65 80 7 148 42 233 122 191 177 317 452 379 821 21
126 16 320 -10 380 -54 126 -147 179 -256 146z m13 -655 c14 -13 29 -37 33
-52 27 -109 -130 -433 -272 -564 -53 -47 -60 -51 -102 -48 -60 4 -84 36 -90
115 -9 131 71 329 181 449 110 120 193 153 250 100z"/>
<path d="M4514 4652 c-147 -52 -308 -271 -370 -502 -11 -42 -17 -106 -18 -180
-1 -111 0 -117 30 -170 44 -77 94 -111 177 -117 58 -5 73 -2 129 24 107 50
189 153 258 323 l31 75 69 22 c38 12 95 38 125 58 30 19 57 35 59 35 3 0 -9
-27 -25 -61 -57 -117 -130 -300 -141 -352 -6 -29 -8 -65 -4 -80 8 -32 51 -57
99 -57 l34 0 22 93 c28 116 76 270 108 350 40 102 145 327 152 327 3 0 6 -114
7 -253 1 -274 7 -313 55 -350 56 -41 117 28 243 271 83 159 184 322 200 322
12 0 0 -69 -35 -188 -85 -292 -93 -502 -21 -541 33 -17 92 -13 141 11 48 22
177 146 208 198 23 39 33 38 33 -3 0 -55 29 -134 60 -166 56 -55 153 -50 241
15 26 19 75 71 110 115 35 45 71 91 80 102 14 18 15 12 11 -72 -3 -71 -1 -102
13 -137 56 -147 243 -92 411 119 106 134 162 267 119 283 -21 9 -40 -10 -95
-91 -95 -141 -190 -225 -254 -225 -28 0 -36 16 -36 73 0 114 44 277 134 495
48 117 51 146 18 175 -30 27 -66 30 -94 8 l-26 -21 -17 26 c-20 31 -71 54
-119 54 -179 0 -423 -224 -506 -465 -23 -66 -184 -273 -244 -313 -55 -38 -70
-28 -74 46 -2 51 7 100 54 270 65 234 79 345 50 400 -20 38 -44 52 -91 52 -29
0 -44 -8 -78 -42 -66 -67 -180 -252 -283 -460 -27 -54 -52 -98 -57 -98 -5 0
-7 119 -6 269 4 261 3 270 -17 297 -24 33 -57 44 -98 33 -43 -12 -61 -33 -144
-157 -74 -113 -133 -174 -207 -217 -43 -26 -131 -53 -140 -43 -3 3 0 39 6 79
20 129 -18 263 -91 321 -47 37 -125 45 -196 20z m138 -144 c21 -30 23 -44 23
-145 0 -61 -3 -115 -7 -118 -23 -24 -121 45 -144 102 -29 69 -9 164 39 183 42
17 65 11 89 -22z m2037 -9 c34 -32 23 -91 -43 -224 -73 -147 -161 -277 -238
-351 -76 -74 -99 -83 -129 -53 -20 20 -21 28 -16 113 9 141 61 267 165 398
101 127 202 172 261 117z m-2256 -276 c31 -49 83 -86 145 -104 47 -14 49 -20
26 -75 -39 -94 -161 -234 -203 -234 -31 0 -69 21 -87 47 -44 68 -19 280 52
450 l17 38 12 -40 c6 -22 24 -59 38 -82z"/>
</g>
</svg>
